<svg width="15" height="15" viewBox="0 0 15 15" fill="none" xmlns="http://www.w3.org/2000/svg">
<g clip-path="url(#clip0)">
<path d="M14.5253 13.5765L13.5 10.5H12.375L12.9998 13.5H2.00028L2.62503 10.5H1.50003L0.474026 13.5765C0.213776 14.3595 0.675026 15 1.50003 15H13.5C14.325 15 14.7863 14.3595 14.5253 13.5765ZM11.25 3.75C11.25 2.75544 10.8549 1.80161 10.1517 1.09835C9.44842 0.395088 8.49459 0 7.50003 0C6.50546 0 5.55164 0.395088 4.84838 1.09835C4.14511 1.80161 3.75003 2.75544 3.75003 3.75C3.75003 7.33125 7.50003 11.25 7.50003 11.25C7.50003 11.25 11.25 7.33125 11.25 3.75ZM5.47503 3.795C5.47503 2.67675 6.38103 1.77075 7.50003 1.77075C8.03699 1.77075 8.55196 1.98406 8.93165 2.36375C9.31134 2.74344 9.52465 3.25841 9.52465 3.79538C9.52465 4.33234 9.31134 4.84731 8.93165 5.227C8.55196 5.60669 8.03699 5.82 7.50003 5.82C6.96296 5.82 6.4479 5.60665 6.06813 5.22689C5.68837 4.84713 5.47503 4.33206 5.47503 3.795Z" fill="#DDDDDD"/>
</g>
<defs>
<clipPath id="clip0">
<rect width="15" height="15" fill="white"/>
</clipPath>
</defs>
</svg>
