<svg width="15" height="15" viewBox="0 0 15 15" fill="none" xmlns="http://www.w3.org/2000/svg">
<path d="M7.5 1.875C4.6625 1.875 2.0875 2.9875 0.18125 4.79375C0.06875 4.90625 0 5.0625 0 5.2375C0 5.4125 0.06875 5.56875 0.18125 5.68125L1.73125 7.23125C1.84832 7.347 2.00598 7.41244 2.1706 7.41361C2.33523 7.41478 2.4938 7.35158 2.6125 7.2375C3.10625 6.775 3.66875 6.3875 4.275 6.08125C4.48125 5.98125 4.625 5.76875 4.625 5.51875V3.58125C5.53125 3.28125 6.49375 3.125 7.5 3.125C8.49375 3.125 9.4625 3.28125 10.3687 3.575V5.5125C10.3687 5.75625 10.5125 5.975 10.7188 6.075C11.3313 6.38125 11.875 6.775 12.3875 7.23125C12.5 7.34375 12.6562 7.40625 12.8125 7.40625C13 7.40625 13.1562 7.3375 13.2687 7.225L14.8187 5.675C14.9312 5.5625 15 5.40625 15 5.23125C15 5.05625 14.925 4.90625 14.8125 4.79375C12.84 2.91835 10.2218 1.87332 7.5 1.875ZM5.625 4.375V6.25C5.625 6.25 1.875 9.375 1.875 11.25V13.75H13.125V11.25C13.125 9.375 9.375 6.25 9.375 6.25V4.375H8.125V5.625H6.875V4.375H5.625ZM7.5 7.5C8.16304 7.5 8.79893 7.76339 9.26777 8.23223C9.73661 8.70108 10 9.33696 10 10C10 10.663 9.73661 11.2989 9.26777 11.7678C8.79893 12.2366 8.16304 12.5 7.5 12.5C6.83696 12.5 6.20107 12.2366 5.73223 11.7678C5.26339 11.2989 5 10.663 5 10C5 9.33696 5.26339 8.70108 5.73223 8.23223C6.20107 7.76339 6.83696 7.5 7.5 7.5ZM7.5 8.4375C7.0856 8.4375 6.68817 8.60212 6.39515 8.89515C6.10212 9.18817 5.9375 9.5856 5.9375 10C5.9375 10.4144 6.10212 10.8118 6.39515 11.1049C6.68817 11.3979 7.0856 11.5625 7.5 11.5625C7.9144 11.5625 8.31183 11.3979 8.60485 11.1049C8.89788 10.8118 9.0625 10.4144 9.0625 10C9.0625 9.5856 8.89788 9.18817 8.60485 8.89515C8.31183 8.60212 7.9144 8.4375 7.5 8.4375Z" fill="#DDDDDD"/>
</svg>
